<svg width="38" height="36" viewBox="0 0 38 36" fill="none" xmlns="http://www.w3.org/2000/svg">
<path d="M37.7688 20.4259L32.242 15.3441C31.9505 15.0755 31.4965 15.094 31.2278 15.3855C31.2187 15.3953 31.2099 15.4056 31.2013 15.4159L28.2943 19.0047V11.3461C28.2949 11.2682 28.2828 11.1906 28.2584 11.1165L25.7965 3.80241V1.08926C25.7965 0.692871 25.4751 0.37149 25.0787 0.37149H3.20838C2.81199 0.37149 2.49061 0.692871 2.49061 1.08926V3.80241L0.0358505 11.1165C0.0114465 11.1906 -0.000665854 11.2682 -3.78084e-05 11.3461V34.9104C-3.78084e-05 35.3068 0.321342 35.6282 0.717729 35.6282H12.202C12.5507 35.6346 12.8535 35.3893 12.9198 35.0468L14.14 28.6874L15.3602 35.0468C15.4264 35.3893 15.7292 35.6346 16.0779 35.6282H27.5622C27.7958 35.6239 28.0128 35.506 28.1436 35.3124L37.8693 21.3662C38.0762 21.0719 38.0332 20.6698 37.7688 20.4259ZM8.01024 1.80702H8.52703V3.20667H8.01024V1.80702ZM3.92615 1.80702H6.5747V3.20667H3.92615V1.80702ZM1.4355 11.461L3.72517 4.6422H5.49088C5.27555 6.32895 4.43576 10.3843 1.4355 11.5902V11.461ZM11.6278 34.1927H1.4355V13.0975C5.74209 11.8342 6.72543 6.55864 6.94076 4.6422H13.4007L13.4294 24.8114L11.6278 34.1927ZM13.4294 3.19949H9.96974V1.80702H13.4294V3.19949ZM21.7124 1.80702H24.361V3.20667H21.7124V1.80702ZM19.7601 1.80702H20.2769V3.20667H19.7601V1.80702ZM14.8649 1.80702H18.3245V3.20667H14.8649V1.80702ZM14.8649 4.6422H16.4871V15.4087C16.59 16.6782 15.9567 17.8945 14.8577 18.5382L14.8649 4.6422ZM26.8516 34.1927H16.6665L14.8649 24.8114V20.0598C16.8479 19.3579 18.1054 17.4038 17.9226 15.3082V4.6422H21.3463C21.5617 6.55864 22.5594 11.8199 26.8516 13.0975V34.1927ZM26.8516 11.5902C23.8585 10.3772 23.0187 6.32895 22.7962 4.6422H24.5619L26.8516 11.461V11.5902ZM28.2871 32.6207V21.237L30.4404 18.6243L35.0844 22.8735L28.2871 32.6207ZM35.8955 21.682L31.3305 17.5118L31.8257 16.9088L36.3333 21.0575L35.8955 21.682Z" fill="#38106A"/>
</svg>
