<svg width="45" height="43" viewBox="0 0 45 43" fill="none" xmlns="http://www.w3.org/2000/svg">
<path d="M0.248722 13.5296C0.265228 13.5129 0.28249 13.4968 0.300293 13.4814L10.4421 4.84144C10.5693 4.73323 10.7253 4.66428 10.8909 4.64292L15.2066 4.08188L14.5506 3.21875C14.2511 2.84793 14.3088 2.30448 14.6797 2.00497C14.6883 1.99796 14.6971 1.99116 14.706 1.98447L16.8034 0.646613C16.8034 0.646613 16.8034 0.603456 16.8034 0.586194C16.9461 0.286471 17.2482 0.0951788 17.5802 0.0942078H27.0315H27.1351H27.2214C27.3223 0.114384 27.4188 0.152361 27.5063 0.206415L30.2424 1.98447C30.6424 2.24373 30.7565 2.77823 30.4972 3.17818C30.4824 3.20106 30.4665 3.22317 30.4495 3.24464L29.7936 4.10778L34.1092 4.66882C34.2749 4.69018 34.4309 4.75912 34.5581 4.86734L44.6999 13.4987C45.0612 13.8096 45.1021 14.3546 44.7913 14.7159C44.7759 14.7337 44.7599 14.751 44.743 14.7675L36.9058 22.5357V42.0425C36.9058 42.5192 36.5193 42.9056 36.0426 42.9056H8.95752C8.48085 42.9056 8.09439 42.5192 8.09439 42.0425V22.5184L0.257137 14.7502C-0.0822906 14.4155 -0.0860672 13.8691 0.248722 13.5296ZM17.5283 2.25204L16.4753 2.93392L20.5407 8.11272L21.1362 6.66265C21.1362 6.66265 21.0844 6.66265 21.0585 6.60223L17.5283 2.25204ZM19.41 1.82047L22.1547 5.21259H22.2842C22.3472 5.20461 22.4111 5.20461 22.4741 5.21259L25.2188 1.82047H19.41ZM21.6111 9.97709V15.2854H22.9921V9.41605L22.3879 8.1904L21.6111 9.97709ZM27.2127 2.10531L23.5703 6.5936L24.3557 8.18177L28.516 2.91665L27.2127 2.10531ZM8.12891 20.1275V17.0289C8.12891 16.5522 8.51538 16.1658 8.99205 16.1658C9.46871 16.1658 9.85518 16.5522 9.85518 17.0289V25.3409C9.86284 25.4068 9.86284 25.4735 9.85518 25.5394V41.1794H35.1276V17.0116C35.1276 16.535 35.5141 16.1485 35.9907 16.1485C36.4674 16.1485 36.8539 16.535 36.8539 17.0116V20.0671L42.8095 14.1633L33.5826 6.29151L28.516 5.65279L24.8477 10.3396C24.8093 10.3872 24.7658 10.4307 24.7182 10.4691V16.1485C24.7182 16.6252 24.3318 17.0116 23.8551 17.0116H20.7478C20.2711 17.0116 19.8847 16.6252 19.8847 16.1485V10.1066L16.4321 5.65279L11.3742 6.3174L2.14729 14.1892L8.12891 20.1275Z" fill="#38106A"/>
</svg>
