<svg width="46" height="44" viewBox="0 0 46 44" fill="none" xmlns="http://www.w3.org/2000/svg">
<path d="M45.7358 13.9012C45.7358 13.9012 45.7358 13.9012 45.6478 13.8131L35.1722 5.01007C35.0841 4.92204 34.9081 4.83401 34.732 4.83401L30.3305 4.30583L31.0347 3.42552C31.2988 3.0734 31.2988 2.45719 30.9467 2.1931L28.4818 0.432487C28.4818 0.432487 28.2178 0.168396 27.9537 0.168396H18.2703H18.1823H18.0942C18.0062 0.168396 17.9182 0.256426 17.8302 0.256426L15.0132 2.10507C14.573 2.36916 14.485 2.89734 14.7491 3.33749C14.7491 3.33749 14.7491 3.42552 14.8371 3.42552L15.5414 4.30583L11.1398 4.83401C10.9638 4.83401 10.7877 4.92204 10.6997 5.01007L0.312069 13.8131C-0.0400529 14.1652 -0.128083 14.6934 0.224039 15.0455C0.224039 15.0455 0.224039 15.0455 0.312069 15.1336L8.32285 23.0563V42.9512C8.32285 43.4794 8.67497 43.8315 9.20316 43.8315H36.8448C37.3729 43.8315 37.7251 43.4794 37.7251 42.9512V23.0563L45.7358 15.1336C46.088 14.7815 46.088 14.2533 45.7358 13.9012ZM29.01 3.0734L24.8726 8.35523L24.2564 6.85871C24.2564 6.85871 24.3444 6.85871 24.3444 6.77068L27.9537 2.36916L29.01 3.0734ZM18.0942 2.1931L21.7915 6.77068L20.9993 8.35523L16.7738 3.0734L18.0942 2.1931ZM22.1436 42.0709H22.0556H9.99543V17.4224C9.99543 16.8942 9.64331 16.5421 9.11513 16.5421C8.58694 16.5421 8.23482 16.8942 8.23482 17.4224V20.5034L2.16071 14.5174L11.58 6.50659L16.7738 5.89038L20.5591 10.644C20.8232 10.9961 21.4394 11.0842 21.7915 10.8201C21.8796 10.7321 21.9676 10.644 22.0556 10.556L22.1436 10.468V42.0709ZM23.112 5.36219H22.9359L20.1189 1.92901H26.017L23.2 5.36219H23.112ZM37.637 20.5914V17.5103C37.637 16.9821 37.2849 16.63 36.7567 16.63C36.2285 16.63 35.8764 16.9821 35.8764 17.5103V42.1588H23.8162V37.1411H24.5205C25.0487 37.1411 25.4008 36.789 25.4008 36.2608C25.4008 35.7326 25.0487 35.3805 24.5205 35.3805H23.8162V30.0987H24.5205C25.0487 30.0987 25.4008 29.7465 25.4008 29.2183C25.4008 28.6902 25.0487 28.338 24.5205 28.338H23.8162V23.0562H24.5205C25.0487 23.0562 25.4008 22.7041 25.4008 22.1759C25.4008 21.6477 25.0487 21.2956 24.5205 21.2956H23.8162V16.0138H24.5205C25.0487 16.0138 25.4008 15.6616 25.4008 15.1335C25.4008 14.6053 25.0487 14.2532 24.5205 14.2532H23.8162V10.4679C23.9043 10.7319 24.1684 10.996 24.5205 10.996H24.6965C24.9606 10.996 25.2247 10.908 25.4008 10.6439L29.0981 5.89027L34.2919 6.59451L43.7111 14.6053L37.637 20.5914Z" fill="#38106A"/>
</svg>
