<svg width="43" height="43" viewBox="0 0 43 43" fill="none" xmlns="http://www.w3.org/2000/svg">
<path d="M42.3915 38.1328L32.7062 5.5639V0.981287C32.7062 0.439371 32.2669 0 31.725 0H11.2749C10.733 0 10.2936 0.439371 10.2936 0.981287V5.5639L0.608343 38.1328C0.479672 38.5681 0.666362 39.0349 1.05973 39.2613C1.32468 39.4183 7.65399 43 20.2831 43H22.7167C35.3459 43 41.685 39.4085 41.9402 39.2613C42.3335 39.0347 42.5202 38.5681 42.3915 38.1328ZM12.2562 1.96257H30.7437V4.71999H12.2562V1.96257ZM22.7167 41.0374H21.4999C11.01 41.2239 4.71994 38.8197 2.73774 37.9071L12.0109 6.68256H15.3963L12.9235 17.1235C12.8006 17.6488 13.125 18.1749 13.6496 18.301H13.8753C14.3401 18.3134 14.7499 17.9979 14.8566 17.5454L17.408 6.68256H25.5821L28.1727 17.5749C28.2794 18.0273 28.6892 18.3428 29.154 18.3304H29.3797C29.9043 18.2043 30.2287 17.6783 30.1058 17.1529L27.6036 6.68256H30.989L40.272 37.8973C38.3683 38.7805 32.4904 41.0374 22.7167 41.0374Z" fill="#38106A"/>
</svg>
