<svg width="36" height="44" viewBox="0 0 36 44" fill="none" xmlns="http://www.w3.org/2000/svg">
<path d="M34.8797 19.5408C30.2857 15.0281 29.9969 5.95746 30.2315 0.939285C30.2315 0.440852 29.8274 0.0367359 29.329 0.0367359H24.3198C23.8215 0.0233104 23.4068 0.416371 23.3934 0.914691C23.3912 0.992761 23.3993 1.07083 23.4173 1.14687C23.7305 2.26005 23.8884 3.41114 23.8866 4.56753V4.74804C18.6338 8.43947 13.4983 5.65059 12.1535 4.74804C12.1535 4.68486 12.1535 4.63071 12.1535 4.57656C12.139 3.41881 12.2848 2.26468 12.5867 1.14687C12.7216 0.667054 12.442 0.168621 11.9621 0.0336898C11.8717 0.00830556 11.7779 -0.00286349 11.6841 0.000633889H6.67497C6.17654 0.000633889 5.77242 0.40475 5.77242 0.903183C6.00709 5.91233 5.71827 14.992 1.11526 19.4686C0.924826 19.6583 0.82893 19.9231 0.853525 20.1907V42.0414C0.853525 43.1231 1.73035 43.9999 2.81206 43.9999H33.228C34.2955 43.9803 35.1507 43.1091 35.1504 42.0414V20.1907C35.1518 19.9463 35.0541 19.7119 34.8797 19.5408ZM18.2908 8.38532C20.1647 8.38554 22.0085 7.91374 23.6519 7.01344C22.948 10.7139 20.6826 13.4215 17.993 13.4215C15.3034 13.4215 13.0109 10.6597 12.3249 6.91416C14.1752 7.85349 16.2159 8.35666 18.2908 8.38532ZM33.3453 42.0414C33.3453 42.1261 33.2766 42.1948 33.1919 42.1948H2.79401C2.70928 42.1948 2.64057 42.1261 2.64057 42.0414V20.5246C7.2165 15.7682 7.76706 7.1398 7.6046 1.79671H10.565C10.3896 2.70986 10.302 3.63768 10.3032 4.56753C10.3123 10.4431 13.76 15.2266 18.002 15.2266C22.244 15.2266 25.6917 10.4431 25.6917 4.56753C25.6929 3.63768 25.6053 2.70986 25.43 1.79671H28.3903C28.2279 7.1398 28.7875 15.7682 33.3544 20.5246L33.3453 42.0414Z" fill="#38106A"/>
</svg>
