<svg width="34" height="38" viewBox="0 0 34 38" fill="none" xmlns="http://www.w3.org/2000/svg">
<path d="M32.5809 3.8062L24.0114 1.22697L19.9787 0.00876291C19.9007 -0.00226394 19.8215 -0.00226394 19.7435 0.00876291H14.2658C14.185 -0.00310408 14.1029 -0.00310408 14.0221 0.00876291L11.9638 0.622066L9.98946 1.21857L1.42003 3.7978C1.05268 3.9087 0.807144 4.25452 0.823527 4.63794V35.0594C0.823527 35.5234 1.1997 35.8996 1.66367 35.8996H5.51151V37.1598C5.51151 37.6238 5.88769 37.9999 6.35165 37.9999H12.93C14.4085 37.8933 15.8242 37.3591 17.0046 36.4625C18.2032 37.3668 19.64 37.9012 21.1381 37.9999H27.6492C28.1132 37.9999 28.4894 37.6238 28.4894 37.1598V35.8996H32.3372C32.8012 35.8996 33.1774 35.5234 33.1774 35.0594V4.60433C33.1747 4.23635 32.933 3.9129 32.5809 3.8062ZM20.4492 1.90748L21.1633 2.12592L22.5748 2.55439L21.4322 4.88158C21.2398 5.2754 21.3824 5.75092 21.7598 5.97376L23.4401 6.98193L18.4917 17.5509L20.4492 1.90748ZM11.9638 2.39476L13.5937 1.89908L15.5512 17.5425L10.5272 6.97353L12.2074 5.96536C12.5849 5.74252 12.7275 5.267 12.5351 4.87318L11.3925 2.54599L11.9638 2.39476ZM16.1645 34.8326C15.61 35.8492 13.5265 36.2608 12.8711 36.3197H7.2002V13.7115C7.2002 13.2475 6.82402 12.8713 6.36006 12.8713C5.89609 12.8713 5.51992 13.2475 5.51992 13.7115V34.2193H2.51221V5.23444L9.80463 3.02487L10.7288 4.89838L9.04851 5.90655C8.67265 6.12614 8.52678 6.59652 8.71245 6.99033L16.1645 22.8606V34.8326ZM15.2235 1.62183H18.7941L17.0046 15.9042L15.2235 1.62183ZM31.4971 34.2193H28.4894V13.7115C28.4894 13.2475 28.1132 12.8713 27.6492 12.8713C27.1853 12.8713 26.8091 13.2475 26.8091 13.7115V36.3197H21.2053C20.4912 36.2608 18.3993 35.8492 17.8448 34.8326V31.6653H18.8277C19.2917 31.6653 19.6679 31.2891 19.6679 30.8251C19.6679 30.3612 19.2917 29.985 18.8277 29.985H17.8448V26.3136H18.8277C19.2917 26.3136 19.6679 25.9374 19.6679 25.4734C19.6679 25.0095 19.2917 24.6333 18.8277 24.6333H17.8448V22.8606L25.322 6.99874C25.5077 6.60492 25.3618 6.13455 24.986 5.91495L23.3057 4.90679L24.2046 3.02487L31.4971 5.22604V34.2193Z" fill="#38106A"/>
</svg>
