<svg width="48" height="40" viewBox="0 0 48 40" fill="none" xmlns="http://www.w3.org/2000/svg">
<path d="M46.943 10.7372C46.9323 10.7266 46.9212 10.7161 46.9099 10.706L37.2898 2.63335C37.202 2.5578 37.0996 2.4992 36.988 2.46067L30.0291 0.11228C29.5543 -0.0504667 29.0298 0.181027 28.8574 0.629229C28.8263 0.710063 28.8083 0.794782 28.8037 0.880689C28.8037 1.07063 28.5019 5.44797 23.8656 5.51704C19.2019 5.44797 18.9093 1.07063 18.9002 0.880689C18.8732 0.404535 18.4425 0.0392169 17.9382 0.0646866C17.8515 0.0691114 17.7659 0.0850839 17.6839 0.11228L10.7341 2.48658C10.6225 2.5251 10.5201 2.58371 10.4323 2.65925L0.876287 10.706C0.510162 11.0344 0.495303 11.5809 0.843138 11.9266C0.853883 11.9372 0.86497 11.9477 0.876287 11.9579L8.48454 19.2189V39.0766C8.48454 39.5534 8.89398 39.94 9.39899 39.94H38.3872C38.8922 39.94 39.3016 39.5534 39.3016 39.0766V19.2189L46.9099 11.9579C47.276 11.6294 47.2908 11.083 46.943 10.7372ZM39.2742 16.7582V12.7522C39.2742 12.2754 38.8647 11.8888 38.3597 11.8888C37.8547 11.8888 37.4453 12.2754 37.4453 12.7522V38.1701H10.2769V12.7522C10.2769 12.2754 9.86742 11.8888 9.36241 11.8888C8.85741 11.8888 8.44796 12.2754 8.44796 12.7522V16.7669L2.82407 11.388L11.5297 4.03202L17.2541 2.08079C17.9633 5.53064 21.5003 7.7846 25.1542 7.11505C27.8527 6.62055 29.9625 4.62851 30.4863 2.08079L36.2108 4.03202L44.8889 11.388L39.2742 16.7582Z" fill="#38106A"/>
</svg>
